<?xml version="1.0" encoding="utf-8"?>
<svg xmlns="http://www.w3.org/2000/svg" style="margin: auto; display: block; shape-rendering: auto; background-image: none;" width="128" height="128" preserveAspectRatio="xMidYMid">
<style type="text/css">
  text {
    text-anchor: middle; font-size: 20px; opacity: 0;
  }
</style>
<g style="transform-origin:64px 64px;transform:scale(1)">
<g transform="translate(64,64)">
  <g transform="translate(0,0)"><g class="path" style="transform: scale(0.9099999999999999); transform-origin: -44.58000326156616px -0.9900364875793457px; animation: breath-aca3467a-1877-425f-91cf-1f66c3ec2c72 1s linear -0.5940000000000001s infinite normal forwards;"><path d="M1.42 0L2.14-13.64L4.28-13.64L7.36-5.52L7.36-5.52Q7.62-4.82 7.84-4.23L7.84-4.23L7.84-4.23Q8.06-3.64 8.22-3.18L8.22-3.18L8.22-3.18Q8.42-2.66 8.56-2.22L8.56-2.22L8.60-2.22L8.60-2.22Q8.72-2.66 8.90-3.18L8.90-3.18L8.90-3.18Q9.06-3.64 9.26-4.23L9.26-4.23L9.26-4.23Q9.46-4.82 9.74-5.52L9.74-5.52L12.88-13.64L15.02-13.64L15.72 0L14.02 0L13.68-7.50L13.68-7.50Q13.64-8.48 13.62-9.16L13.62-9.16L13.62-9.16Q13.60-9.84 13.60-10.28L13.60-10.28L13.60-11.12L13.56-11.12L13.56-11.12Q13.44-10.82 13.26-10.30L13.26-10.30L13.26-10.30Q13.10-9.86 12.85-9.17L12.85-9.17L12.85-9.17Q12.60-8.48 12.24-7.50L12.24-7.50L9.42 0L7.72 0L4.88-7.50L4.88-7.50Q4.50-8.46 4.26-9.15L4.26-9.15L4.26-9.15Q4.02-9.84 3.86-10.28L3.86-10.28L3.86-10.28Q3.68-10.80 3.58-11.12L3.58-11.12L3.54-11.12L3.54-11.12Q3.56-10.80 3.58-10.28L3.58-10.28L3.58-10.28Q3.60-9.44 3.52-7.50L3.52-7.50L3.12 0L1.42 0" fill="#74e52b" stroke="none" stroke-width="none" transform="translate(-53.150001525878906,5.829963989257813)" style="fill: rgb(116, 229, 43);"></path></g><g class="path" style="transform: scale(0.9099999999999999); transform-origin: -30.389999389648438px 0.8299636840820312px; animation: breath-aca3467a-1877-425f-91cf-1f66c3ec2c72 1s linear -0.528s infinite normal forwards;"><path d="M19.60-4.98L19.60-4.98L19.60-4.98Q19.60-3.04 20.47-2.09L20.47-2.09L20.47-2.09Q21.34-1.14 22.82-1.14L22.82-1.14L22.82-1.14Q24.28-1.14 25.10-2.08L25.10-2.08L25.10-2.08Q25.92-3.02 25.92-4.90L25.92-4.90L25.92-4.90Q25.92-6.90 25.05-7.88L25.05-7.88L25.05-7.88Q24.18-8.86 22.68-8.86L22.68-8.86L22.68-8.86Q21.18-8.86 20.39-7.89L20.39-7.89L20.39-7.89Q19.60-6.92 19.60-4.98zM17.90-5L17.90-5L17.90-5Q17.90-6.52 18.38-7.53L18.38-7.53L18.38-7.53Q18.86-8.54 19.60-9.15L19.60-9.15L19.60-9.15Q20.34-9.76 21.19-10.01L21.19-10.01L21.19-10.01Q22.04-10.26 22.80-10.26L22.80-10.26L22.80-10.26Q23.52-10.26 24.37-10.03L24.37-10.03L24.37-10.03Q25.22-9.80 25.94-9.21L25.94-9.21L25.94-9.21Q26.66-8.62 27.14-7.63L27.14-7.63L27.14-7.63Q27.62-6.64 27.62-5.12L27.62-5.12L27.62-5.12Q27.62-3.54 27.13-2.50L27.13-2.50L27.13-2.50Q26.64-1.46 25.90-0.85L25.90-0.85L25.90-0.85Q25.16-0.24 24.30 0.01L24.30 0.01L24.30 0.01Q23.44 0.26 22.70 0.26L22.70 0.26L22.70 0.26Q21.94 0.26 21.10 0.02L21.10 0.02L21.10 0.02Q20.26-0.22 19.55-0.81L19.55-0.81L19.55-0.81Q18.84-1.40 18.37-2.42L18.37-2.42L18.37-2.42Q17.90-3.44 17.90-5" fill="#74e52b" stroke="none" stroke-width="none" transform="translate(-53.150001525878906,5.829963989257813)" style="fill: rgb(116, 229, 43);"></path></g><g class="path" style="transform: scale(0.9099999999999999); transform-origin: -19.480002403259277px -1.6200361251831055px; animation: breath-aca3467a-1877-425f-91cf-1f66c3ec2c72 1s linear -0.462s infinite normal forwards;"><path d="M36.22-2.20L36.22-8.56L36.22-8.56Q35.50-8.76 35.10-8.81L35.10-8.81L35.10-8.81Q34.70-8.86 34.28-8.86L34.28-8.86L34.28-8.86Q33.44-8.86 32.84-8.56L32.84-8.56L32.84-8.56Q32.24-8.26 31.85-7.73L31.85-7.73L31.85-7.73Q31.46-7.20 31.28-6.51L31.28-6.51L31.28-6.51Q31.10-5.82 31.10-5.04L31.10-5.04L31.10-5.04Q31.10-4.34 31.25-3.64L31.25-3.64L31.25-3.64Q31.40-2.94 31.72-2.38L31.72-2.38L31.72-2.38Q32.04-1.82 32.50-1.48L32.50-1.48L32.50-1.48Q32.96-1.14 33.60-1.14L33.60-1.14L33.60-1.14Q34.04-1.14 34.51-1.30L34.51-1.30L34.51-1.30Q34.98-1.46 35.38-1.67L35.38-1.67L35.38-1.67Q35.78-1.88 36.22-2.20L36.22-2.20zM36.40 0.16L36.24-0.80L36.24-0.80Q35.78-0.48 35.35-0.27L35.35-0.27L35.35-0.27Q34.92-0.06 34.41 0.10L34.41 0.10L34.41 0.10Q33.90 0.26 33.42 0.26L33.42 0.26L33.42 0.26Q31.54 0.26 30.47-1.07L30.47-1.07L30.47-1.07Q29.40-2.40 29.40-4.96L29.40-4.96L29.40-4.96Q29.40-6.48 29.89-7.50L29.89-7.50L29.89-7.50Q30.38-8.52 31.12-9.13L31.12-9.13L31.12-9.13Q31.86-9.74 32.71-10L32.71-10L32.71-10Q33.56-10.26 34.28-10.26L34.28-10.26L34.28-10.26Q34.64-10.26 35.04-10.21L35.04-10.21L35.04-10.21Q35.44-10.16 36.22-9.96L36.22-9.96L36.22-14.98L37.82-15.16L37.82-1.82L37.82-1.82Q37.82-1.54 37.83-1.23L37.83-1.23L37.83-1.23Q37.84-0.92 37.87-0.62L37.87-0.62L37.87-0.62Q37.90-0.32 37.94 0L37.94 0L36.40 0.16" fill="#74e52b" stroke="none" stroke-width="none" transform="translate(-53.150001525878906,5.829963989257813)" style="fill: rgb(116, 229, 43);"></path></g><g class="path" style="transform: scale(0.9099999999999999); transform-origin: -9.650001525878906px 0.8299636840820312px; animation: breath-aca3467a-1877-425f-91cf-1f66c3ec2c72 1s linear -0.396s infinite normal forwards;"><path d="M46.44-9.84L46.16-8.42L46.16-8.42Q45.32-8.68 44.67-8.77L44.67-8.77L44.67-8.77Q44.02-8.86 43.48-8.86L43.48-8.86L43.48-8.86Q42.78-8.86 42.31-8.52L42.31-8.52L42.31-8.52Q41.84-8.18 41.84-7.64L41.84-7.64L41.84-7.64Q41.86-7.16 42.26-6.82L42.26-6.82L42.26-6.82Q42.66-6.48 43.19-6.21L43.19-6.21L43.19-6.21Q43.72-5.94 44.37-5.62L44.37-5.62L44.37-5.62Q45.02-5.30 45.59-4.90L45.59-4.90L45.59-4.90Q46.16-4.50 46.52-3.94L46.52-3.94L46.52-3.94Q46.88-3.38 46.90-2.60L46.90-2.60L46.90-2.60Q46.88-1.76 46.53-1.21L46.53-1.21L46.53-1.21Q46.18-0.66 45.63-0.33L45.63-0.33L45.63-0.33Q45.08 0 44.44 0.13L44.44 0.13L44.44 0.13Q43.80 0.26 43.24 0.26L43.24 0.26L43.24 0.26Q42.52 0.26 41.75 0.18L41.75 0.18L41.75 0.18Q40.98 0.10 40.10-0.16L40.10-0.16L40.40-1.60L40.40-1.60Q41.30-1.36 42.04-1.25L42.04-1.25L42.04-1.25Q42.78-1.14 43.26-1.14L43.26-1.14L43.26-1.14Q43.62-1.14 43.97-1.22L43.97-1.22L43.97-1.22Q44.32-1.30 44.60-1.45L44.60-1.45L44.60-1.45Q44.88-1.60 45.05-1.84L45.05-1.84L45.05-1.84Q45.22-2.08 45.22-2.38L45.22-2.38L45.22-2.38Q45.20-2.94 44.84-3.33L44.84-3.33L44.84-3.33Q44.48-3.72 43.91-4.03L43.91-4.03L43.91-4.03Q43.34-4.34 42.69-4.65L42.69-4.65L42.69-4.65Q42.04-4.96 41.47-5.37L41.47-5.37L41.47-5.37Q40.90-5.78 40.52-6.35L40.52-6.35L40.52-6.35Q40.14-6.92 40.14-7.76L40.14-7.76L40.14-7.76Q40.14-8.36 40.45-8.83L40.45-8.83L40.45-8.83Q40.76-9.30 41.25-9.61L41.25-9.61L41.25-9.61Q41.74-9.92 42.33-10.09L42.33-10.09L42.33-10.09Q42.92-10.26 43.48-10.26L43.48-10.26L43.48-10.26Q44.06-10.26 44.78-10.17L44.78-10.17L44.78-10.17Q45.50-10.08 46.44-9.84L46.44-9.84" fill="#74e52b" stroke="none" stroke-width="none" transform="translate(-53.150001525878906,5.829963989257813)" style="fill: rgb(116, 229, 43);"></path></g><g class="path" style="transform: scale(0.9099999999999999); transform-origin: 4.929998397827148px -0.9900364875793457px; animation: breath-aca3467a-1877-425f-91cf-1f66c3ec2c72 1s linear -0.33s infinite normal forwards;"><path d="M53.96 0L53.96-13.64L57.10-13.64L57.10-13.64Q59.70-13.64 60.95-12.72L60.95-12.72L60.95-12.72Q62.20-11.80 62.20-9.62L62.20-9.62L62.20-9.62Q62.20-8.42 61.74-7.62L61.74-7.62L61.74-7.62Q61.28-6.82 60.59-6.33L60.59-6.33L60.59-6.33Q59.90-5.84 59.10-5.63L59.10-5.63L59.10-5.63Q58.30-5.42 57.62-5.42L57.62-5.42L55.64-5.42L55.64 0L53.96 0zM55.64-12.14L55.64-6.92L57.48-6.92L57.48-6.92Q58.16-6.92 58.71-7.05L58.71-7.05L58.71-7.05Q59.26-7.18 59.66-7.49L59.66-7.49L59.66-7.49Q60.06-7.80 60.28-8.33L60.28-8.33L60.28-8.33Q60.50-8.86 60.50-9.66L60.50-9.66L60.50-9.66Q60.50-10.46 60.27-10.95L60.27-10.95L60.27-10.95Q60.04-11.44 59.59-11.70L59.59-11.70L59.59-11.70Q59.14-11.96 58.46-12.05L58.46-12.05L58.46-12.05Q57.78-12.14 56.88-12.14L56.88-12.14L55.64-12.14" fill="#74e52b" stroke="none" stroke-width="none" transform="translate(-53.150001525878906,5.829963989257813)" style="fill: rgb(116, 229, 43);"></path></g><g class="path" style="transform: scale(0.9099999999999999); transform-origin: 15.329996109008789px 0.8299636840820312px; animation: breath-aca3467a-1877-425f-91cf-1f66c3ec2c72 1s linear -0.264s infinite normal forwards;"><path d="M65.32-4.98L65.32-4.98L65.32-4.98Q65.32-3.04 66.19-2.09L66.19-2.09L66.19-2.09Q67.06-1.14 68.54-1.14L68.54-1.14L68.54-1.14Q70-1.14 70.82-2.08L70.82-2.08L70.82-2.08Q71.64-3.02 71.64-4.90L71.64-4.90L71.64-4.90Q71.64-6.90 70.77-7.88L70.77-7.88L70.77-7.88Q69.90-8.86 68.40-8.86L68.40-8.86L68.40-8.86Q66.90-8.86 66.11-7.89L66.11-7.89L66.11-7.89Q65.32-6.92 65.32-4.98zM63.62-5L63.62-5L63.62-5Q63.62-6.52 64.10-7.53L64.10-7.53L64.10-7.53Q64.58-8.54 65.32-9.15L65.32-9.15L65.32-9.15Q66.06-9.76 66.91-10.01L66.91-10.01L66.91-10.01Q67.76-10.26 68.52-10.26L68.52-10.26L68.52-10.26Q69.24-10.26 70.09-10.03L70.09-10.03L70.09-10.03Q70.94-9.80 71.66-9.21L71.66-9.21L71.66-9.21Q72.38-8.62 72.86-7.63L72.86-7.63L72.86-7.63Q73.34-6.64 73.34-5.12L73.34-5.12L73.34-5.12Q73.34-3.54 72.85-2.50L72.85-2.50L72.85-2.50Q72.36-1.46 71.62-0.85L71.62-0.85L71.62-0.85Q70.88-0.24 70.02 0.01L70.02 0.01L70.02 0.01Q69.16 0.26 68.42 0.26L68.42 0.26L68.42 0.26Q67.66 0.26 66.82 0.02L66.82 0.02L66.82 0.02Q65.98-0.22 65.27-0.81L65.27-0.81L65.27-0.81Q64.56-1.40 64.09-2.42L64.09-2.42L64.09-2.42Q63.62-3.44 63.62-5" fill="#74e52b" stroke="none" stroke-width="none" transform="translate(-53.150001525878906,5.829963989257813)" style="fill: rgb(116, 229, 43);"></path></g><g class="path" style="transform: scale(0.9099999999999999); transform-origin: 24.959999084472656px 0.6985349655151367px; animation: breath-aca3467a-1877-425f-91cf-1f66c3ec2c72 1s linear -0.198s infinite normal forwards;"><path d="M75.68 0L75.68-8.44L75.68-8.44Q75.68-8.90 75.58-9.88L75.58-9.88L77.06-10.08L77.22-8.62L77.24-8.62L77.24-8.62Q77.60-9.08 77.94-9.42L77.94-9.42L77.94-9.42Q78.28-9.76 78.65-10.01L78.65-10.01L78.65-10.01Q79.02-10.26 79.36-10.26L79.36-10.26L79.36-10.26Q79.82-10.28 80.64-10.16L80.64-10.16L80.28-8.62L80.28-8.62Q79.62-8.74 79.36-8.72L79.36-8.72L79.36-8.72Q79.02-8.72 78.64-8.40L78.64-8.40L78.64-8.40Q78.26-8.08 77.98-7.72L77.98-7.72L77.98-7.72Q77.62-7.28 77.28-6.72L77.28-6.72L77.28 0L75.68 0" fill="#74e52b" stroke="none" stroke-width="none" transform="translate(-53.150001525878906,5.829963989257813)" style="fill: rgb(116, 229, 43);"></path></g><g class="path" style="transform: scale(0.9099999999999999); transform-origin: 31.439998626708984px -0.5700364112854004px; animation: breath-aca3467a-1877-425f-91cf-1f66c3ec2c72 1s linear -0.132s infinite normal forwards;"><path d="M83.14-12.86L84.74-13.06L84.74-10.06L87.64-10.06L87.64-8.76L84.74-8.76L84.74-3.42L84.74-3.42Q84.74-2.76 84.77-2.32L84.77-2.32L84.77-2.32Q84.80-1.88 84.90-1.62L84.90-1.62L84.90-1.62Q85-1.36 85.18-1.25L85.18-1.25L85.18-1.25Q85.36-1.14 85.64-1.14L85.64-1.14L85.64-1.14Q86.40-1.16 87.40-1.70L87.40-1.70L87.88-0.48L87.88-0.48Q87.22-0.04 86.65 0.11L86.65 0.11L86.65 0.11Q86.08 0.26 85.52 0.26L85.52 0.26L85.52 0.26Q84.20 0.26 83.67-0.49L83.67-0.49L83.67-0.49Q83.14-1.24 83.14-2.98L83.14-2.98L83.14-8.76L81.30-8.76L81.30-10.06L83.14-10.06L83.14-12.86" fill="#74e52b" stroke="none" stroke-width="none" transform="translate(-53.150001525878906,5.829963989257813)" style="fill: rgb(116, 229, 43);"></path></g><g class="path" style="transform: scale(0.9099999999999999); transform-origin: 40.13999938964844px 0.8299636840820312px; animation: breath-aca3467a-1877-425f-91cf-1f66c3ec2c72 1s linear -0.066s infinite normal forwards;"><path d="M96.74-1.58L97.04-0.24L97.04-0.24Q96.58-0.10 96.09 0L96.09 0L96.09 0Q95.60 0.10 95.01 0.18L95.01 0.18L95.01 0.18Q94.42 0.26 93.78 0.26L93.78 0.26L93.78 0.26Q92.78 0.26 91.92-0.02L91.92-0.02L91.92-0.02Q91.06-0.30 90.42-0.92L90.42-0.92L90.42-0.92Q89.78-1.54 89.41-2.53L89.41-2.53L89.41-2.53Q89.04-3.52 89.04-4.96L89.04-4.96L89.04-4.96Q89.04-6.26 89.40-7.25L89.40-7.25L89.40-7.25Q89.76-8.24 90.39-8.91L90.39-8.91L90.39-8.91Q91.02-9.58 91.87-9.92L91.87-9.92L91.87-9.92Q92.72-10.26 93.72-10.26L93.72-10.26L93.72-10.26Q94.70-10.26 95.42-9.88L95.42-9.88L95.42-9.88Q96.14-9.50 96.61-8.85L96.61-8.85L96.61-8.85Q97.08-8.20 97.31-7.33L97.31-7.33L97.31-7.33Q97.54-6.46 97.54-5.50L97.54-5.50L97.24-4.62L90.78-4.62L90.78-4.62Q90.78-4 90.94-3.38L90.94-3.38L90.94-3.38Q91.10-2.76 91.49-2.26L91.49-2.26L91.49-2.26Q91.88-1.76 92.51-1.45L92.51-1.45L92.51-1.45Q93.14-1.14 94.08-1.14L94.08-1.14L94.08-1.14Q94.68-1.14 95.18-1.21L95.18-1.21L95.18-1.21Q95.68-1.28 96.05-1.37L96.05-1.37L96.05-1.37Q96.42-1.46 96.74-1.58L96.74-1.58zM90.84-5.90L95.88-5.90L95.88-5.90Q95.88-6.04 95.82-6.52L95.82-6.52L95.82-6.52Q95.76-7 95.54-7.52L95.54-7.52L95.54-7.52Q95.32-8.04 94.86-8.45L94.86-8.45L94.86-8.45Q94.40-8.86 93.64-8.86L93.64-8.86L93.64-8.86Q92.80-8.86 92.26-8.51L92.26-8.51L92.26-8.51Q91.72-8.16 91.40-7.68L91.40-7.68L91.40-7.68Q91.08-7.20 90.96-6.70L90.96-6.70L90.96-6.70Q90.84-6.20 90.84-5.90L90.84-5.90" fill="#74e52b" stroke="none" stroke-width="none" transform="translate(-53.150001525878906,5.829963989257813)" style="fill: rgb(116, 229, 43);"></path></g><g class="path" style="transform: scale(0.9099999999999999); transform-origin: 50.29999923706055px -1.6200361251831055px; animation: breath-aca3467a-1877-425f-91cf-1f66c3ec2c72 1s linear 0s infinite normal forwards;"><path d="M106-2.20L106-8.56L106-8.56Q105.28-8.76 104.88-8.81L104.88-8.81L104.88-8.81Q104.48-8.86 104.06-8.86L104.06-8.86L104.06-8.86Q103.22-8.86 102.62-8.56L102.62-8.56L102.62-8.56Q102.02-8.26 101.63-7.73L101.63-7.73L101.63-7.73Q101.24-7.20 101.06-6.51L101.06-6.51L101.06-6.51Q100.88-5.82 100.88-5.04L100.88-5.04L100.88-5.04Q100.88-4.34 101.03-3.64L101.03-3.64L101.03-3.64Q101.18-2.94 101.50-2.38L101.50-2.38L101.50-2.38Q101.82-1.82 102.28-1.48L102.28-1.48L102.28-1.48Q102.74-1.14 103.38-1.14L103.38-1.14L103.38-1.14Q103.82-1.14 104.29-1.30L104.29-1.30L104.29-1.30Q104.76-1.46 105.16-1.67L105.16-1.67L105.16-1.67Q105.56-1.88 106-2.20L106-2.20zM106.18 0.16L106.02-0.80L106.02-0.80Q105.56-0.48 105.13-0.27L105.13-0.27L105.13-0.27Q104.70-0.06 104.19 0.10L104.19 0.10L104.19 0.10Q103.68 0.26 103.20 0.26L103.20 0.26L103.20 0.26Q101.32 0.26 100.25-1.07L100.25-1.07L100.25-1.07Q99.18-2.40 99.18-4.96L99.18-4.96L99.18-4.96Q99.18-6.48 99.67-7.50L99.67-7.50L99.67-7.50Q100.16-8.52 100.90-9.13L100.90-9.13L100.90-9.13Q101.64-9.74 102.49-10L102.49-10L102.49-10Q103.34-10.26 104.06-10.26L104.06-10.26L104.06-10.26Q104.42-10.26 104.82-10.21L104.82-10.21L104.82-10.21Q105.22-10.16 106-9.96L106-9.96L106-14.98L107.60-15.16L107.60-1.82L107.60-1.82Q107.60-1.54 107.61-1.23L107.61-1.23L107.61-1.23Q107.62-0.92 107.65-0.62L107.65-0.62L107.65-0.62Q107.68-0.32 107.72 0L107.72 0L106.18 0.16" fill="#74e52b" stroke="none" stroke-width="none" transform="translate(-53.150001525878906,5.829963989257813)" style="fill: rgb(116, 229, 43);"></path></g></g>
</g>
</g>
<style id="breath-aca3467a-1877-425f-91cf-1f66c3ec2c72" data-anikit="">@keyframes breath-aca3467a-1877-425f-91cf-1f66c3ec2c72
{
  0% {
    animation-timing-function: cubic-bezier(0.9647,0.2413,-0.0705,0.7911);
    transform: scale(0.9099999999999999);
  }
  51% {
    animation-timing-function: cubic-bezier(0.9226,0.2631,-0.0308,0.7628);
    transform: scale(1.02994);
  }
  100% {
    transform: scale(0.9099999999999999);
  }
}</style></svg>